<svg width="12" height="12" viewBox="0 0 12 12" fill="none" xmlns="http://www.w3.org/2000/svg">
    <g clip-path="url(#clip0_136_337)">
        <path d="M6.29795 0.948334C3.72663 0.948334 1.63977 3.0352 1.63977 5.60651C1.63977 8.17782 3.72663 10.2647 6.29795 10.2647C8.86926 10.2647 10.9561 8.17782 10.9561 5.60651C10.9561 3.0352 8.86926 0.948334 6.29795 0.948334ZM6.29795 9.33305C4.23903 9.33305 2.57141 7.66542 2.57141 5.60651C2.57141 3.5476 4.23903 1.87997 6.29795 1.87997C8.35686 1.87997 10.0245 3.5476 10.0245 5.60651C10.0245 7.66542 8.35686 9.33305 6.29795 9.33305Z" fill="#F1C40E"/>
        <path d="M3.50293 5.60633C3.50293 4.06354 4.75505 2.81142 6.29784 2.81142C7.84062 2.81142 9.09274 4.06354 9.09274 5.60633C9.09274 7.14912 7.84062 8.40124 6.29784 8.40124C4.75505 8.40124 3.50293 7.14912 3.50293 5.60633Z" fill="#F1C40E"/>
    </g>
    <defs>
        <clipPath id="clip0_136_337">
            <rect width="11.1796" height="11.1796" fill="white" transform="translate(0.707764 0.0160904)"/>
        </clipPath>
    </defs>
</svg>
