<svg width="13" height="12" viewBox="0 0 13 12" fill="none" xmlns="http://www.w3.org/2000/svg">
    <path d="M6.44834 1.08689C3.87702 1.08689 1.79016 3.17375 1.79016 5.74506C1.79016 8.31638 3.87702 10.4032 6.44834 10.4032C9.01965 10.4032 11.1065 8.31638 11.1065 5.74506C11.1065 3.17375 9.01965 1.08689 6.44834 1.08689ZM6.44834 9.47161C4.38942 9.47161 2.7218 7.80398 2.7218 5.74506C2.7218 3.68615 4.38942 2.01852 6.44834 2.01852C8.50725 2.01852 10.1749 3.68615 10.1749 5.74506C10.1749 7.80398 8.50725 9.47161 6.44834 9.47161Z" fill="#0F9D58"/>
    <path d="M3.65332 5.74488C3.65332 4.2021 4.90544 2.94998 6.44823 2.94998C7.99101 2.94998 9.24313 4.2021 9.24313 5.74488C9.24313 7.28767 7.99101 8.53979 6.44823 8.53979C4.90544 8.53979 3.65332 7.28767 3.65332 5.74488Z" fill="#0F9D58"/>
</svg>
