<svg width="16" height="5" viewBox="0 0 16 5" fill="none" xmlns="http://www.w3.org/2000/svg">
    <path d="M2 0.147644C0.9 0.147644 0 1.04764 0 2.14764C0 3.24764 0.9 4.14764 2 4.14764C3.1 4.14764 4 3.24764 4 2.14764C4 1.04764 3.1 0.147644 2 0.147644ZM14 0.147644C12.9 0.147644 12 1.04764 12 2.14764C12 3.24764 12.9 4.14764 14 4.14764C15.1 4.14764 16 3.24764 16 2.14764C16 1.04764 15.1 0.147644 14 0.147644ZM8 0.147644C6.9 0.147644 6 1.04764 6 2.14764C6 3.24764 6.9 4.14764 8 4.14764C9.1 4.14764 10 3.24764 10 2.14764C10 1.04764 9.1 0.147644 8 0.147644Z" fill="#3A3541" fill-opacity="0.87"/>
</svg>
