<svg width="18" height="23" viewBox="0 0 18 23" fill="none" xmlns="http://www.w3.org/2000/svg">
    <path d="M16 2.14764H11.82C11.4 0.987644 10.3 0.147644 9 0.147644C7.7 0.147644 6.6 0.987644 6.18 2.14764H2C0.9 2.14764 0 3.04764 0 4.14764V20.1476C0 21.2476 0.9 22.1476 2 22.1476H16C17.1 22.1476 18 21.2476 18 20.1476V4.14764C18 3.04764 17.1 2.14764 16 2.14764ZM9 2.14764C9.55 2.14764 10 2.59764 10 3.14764C10 3.69764 9.55 4.14764 9 4.14764C8.45 4.14764 8 3.69764 8 3.14764C8 2.59764 8.45 2.14764 9 2.14764ZM16 20.1476H2V4.14764H4V7.14764H14V4.14764H16V20.1476Z" fill="#3A3541" fill-opacity="0.87"/>
</svg>
