<svg width="20" height="17" viewBox="0 0 20 17" fill="none" xmlns="http://www.w3.org/2000/svg">
    <path fill-rule="evenodd" clip-rule="evenodd" d="M11.171 2.14764C11.583 0.982644 12.695 0.147644 14 0.147644C15.305 0.147644 16.417 0.982644 16.829 2.14764H19C19.552 2.14764 20 2.59564 20 3.14764C20 3.69964 19.552 4.14764 19 4.14764H16.829C16.417 5.31264 15.305 6.14764 14 6.14764C12.695 6.14764 11.583 5.31264 11.171 4.14764H9.535L8.216 6.12664C8.703 6.65965 9 7.36965 9 8.14764C9 8.92564 8.703 9.63564 8.216 10.1686L9.535 12.1476H11.171C11.583 10.9826 12.695 10.1476 14 10.1476C15.305 10.1476 16.417 10.9826 16.829 12.1476H19C19.552 12.1476 20 12.5956 20 13.1476C20 13.6996 19.552 14.1476 19 14.1476H16.829C16.417 15.3126 15.305 16.1476 14 16.1476C12.695 16.1476 11.583 15.3126 11.171 14.1476H9C8.666 14.1476 8.353 13.9806 8.168 13.7026L6.443 11.1146C6.298 11.1366 6.151 11.1476 6 11.1476C4.695 11.1476 3.583 10.3126 3.171 9.14764H1C0.448 9.14764 0 8.69965 0 8.14764C0 7.59564 0.448 7.14764 1 7.14764H3.171C3.583 5.98264 4.695 5.14764 6 5.14764C6.151 5.14764 6.298 5.15864 6.443 5.18064L8.168 2.59264C8.353 2.31464 8.666 2.14764 9 2.14764H11.171ZM14 14.1476C13.448 14.1476 13 13.6996 13 13.1476C13 12.5956 13.448 12.1476 14 12.1476C14.552 12.1476 15 12.5956 15 13.1476C15 13.6996 14.552 14.1476 14 14.1476ZM6 7.14764C6.552 7.14764 7 7.59564 7 8.14764C7 8.69965 6.552 9.14764 6 9.14764C5.448 9.14764 5 8.69965 5 8.14764C5 7.59564 5.448 7.14764 6 7.14764ZM14 2.14764C14.552 2.14764 15 2.59564 15 3.14764C15 3.69964 14.552 4.14764 14 4.14764C13.448 4.14764 13 3.69964 13 3.14764C13 2.59564 13.448 2.14764 14 2.14764Z" fill="#544F5A"/>
</svg>
