<svg width="18" height="18" viewBox="0 0 18 18" fill="none" xmlns="http://www.w3.org/2000/svg">
    <path d="M5.4001 10.3476C5.4001 9.6849 5.93736 9.14764 6.6001 9.14764C7.26284 9.14764 7.8001 9.6849 7.8001 10.3476V16.3476C7.8001 17.0104 7.26284 17.5476 6.6001 17.5476C5.93736 17.5476 5.4001 17.0104 5.4001 16.3476V10.3476Z" fill="#3A3541" fill-opacity="0.87"/>
    <path d="M10.2001 4.34764C10.2001 3.6849 10.7374 3.14764 11.4001 3.14764C12.0628 3.14764 12.6001 3.6849 12.6001 4.34764V16.3476C12.6001 17.0104 12.0628 17.5476 11.4001 17.5476C10.7374 17.5476 10.2001 17.0104 10.2001 16.3476V4.34764Z" fill="#3A3541" fill-opacity="0.87"/>
    <path d="M15.0001 1.94764C15.0001 1.2849 15.5374 0.747643 16.2001 0.747643C16.8628 0.747643 17.4001 1.2849 17.4001 1.94764V16.3476C17.4001 17.0104 16.8628 17.5476 16.2001 17.5476C15.5374 17.5476 15.0001 17.0104 15.0001 16.3476V1.94764Z" fill="#3A3541" fill-opacity="0.87"/>
    <path d="M0.600098 6.74764C0.600098 6.0849 1.13736 5.54764 1.8001 5.54764C2.46284 5.54764 3.0001 6.0849 3.0001 6.74764V16.3476C3.0001 17.0104 2.46284 17.5476 1.8001 17.5476C1.13736 17.5476 0.600098 17.0104 0.600098 16.3476V6.74764Z" fill="#3A3541" fill-opacity="0.87"/>
</svg>
