<svg width="20" height="21" viewBox="0 0 20 21" fill="none" xmlns="http://www.w3.org/2000/svg">
    <path d="M10 0.147644C4.5 0.147644 0 4.64764 0 10.1476C0 15.6476 4.5 20.1476 10 20.1476C15.5 20.1476 20 15.6476 20 10.1476C20 4.64764 15.5 0.147644 10 0.147644ZM11 2.21764C14.61 2.66764 17.48 5.54764 17.93 9.14764H11V2.21764ZM2 10.1476C2 6.08764 5.07 2.70764 9 2.21764V18.0876C5.07 17.5876 2 14.2076 2 10.1476ZM11 18.0776V11.1476H17.93C17.48 14.7576 14.61 17.6276 11 18.0776Z" fill="#3A3541" fill-opacity="0.87"/>
</svg>
