<svg width="16" height="17" viewBox="0 0 16 17" fill="none" xmlns="http://www.w3.org/2000/svg">
    <path d="M8 2.04764C9.16 2.04764 10.1 2.98764 10.1 4.14764C10.1 5.30764 9.16 6.24764 8 6.24764C6.84 6.24764 5.9 5.30764 5.9 4.14764C5.9 2.98764 6.84 2.04764 8 2.04764ZM8 11.0476C10.97 11.0476 14.1 12.5076 14.1 13.1476V14.2476H1.9V13.1476C1.9 12.5076 5.03 11.0476 8 11.0476ZM8 0.147644C5.79 0.147644 4 1.93764 4 4.14764C4 6.35764 5.79 8.14764 8 8.14764C10.21 8.14764 12 6.35764 12 4.14764C12 1.93764 10.21 0.147644 8 0.147644ZM8 9.14764C5.33 9.14764 0 10.4876 0 13.1476V16.1476H16V13.1476C16 10.4876 10.67 9.14764 8 9.14764Z" fill="#3A3541" fill-opacity="0.87"/>
</svg>
